<?xml version="1.0" encoding="UTF-8"?>
<svg width="57px" height="36px" viewBox="0 0 57 36" version="1.1" xmlns="http://www.w3.org/2000/svg" xmlns:xlink="http://www.w3.org/1999/xlink">
    <!-- Generator: sketchtool 52.5 (67469) - http://www.bohemiancoding.com/sketch -->
    <title>853284DD-55CB-4C97-A88C-B28FF2C2EB00</title>
    <desc>Created with sketchtool.</desc>
    <g id="Page-1" stroke="none" stroke-width="1" fill="none" fill-rule="evenodd">
        <g id="Header---Web-1.0" transform="translate(-485.000000, -347.000000)">
            <g id="manga-rock-logo" transform="translate(485.000000, 347.000000)">
                <path d="M5.44702247,17.6541291 L5.44702247,22.3089752 C6.05929213,22.3089752 6.48839326,22.225179 6.73432584,22.0563073 C6.98025843,21.8887149 7.10322472,21.3437199 7.10322472,20.4206825 L7.10322472,19.2705639 C7.10322472,18.6065911 6.98410112,18.1716185 6.74713483,17.9643669 C6.50952809,17.7571152 6.07658427,17.6541291 5.44702247,17.6541291 L5.44702247,17.6541291 Z M0,14.0726418 L3.85550562,14.0726418 C6.42562921,14.0726418 8.16573034,14.1717899 9.07644944,14.3700862 C9.98588764,14.5683825 10.7275281,15.074358 11.3013708,15.8892919 C11.874573,16.7035861 12.1614944,18.0033865 12.1614944,19.7874136 C12.1614944,21.4166418 11.9591124,22.5117492 11.5537079,23.0714565 C11.1483034,23.6318035 10.3503034,23.9682676 9.16034831,24.080209 C10.2382247,24.3475892 10.962573,24.7051623 11.3333933,25.1535678 C11.7042135,25.6013337 11.9354157,26.0132783 12.0257191,26.3881223 C12.1166629,26.7629663 12.1614944,27.7953865 12.1614944,29.4847431 L12.1614944,35.0056964 L7.10322472,35.0056964 L7.10322472,28.0493337 C7.10322472,26.9292793 7.01420225,26.2352422 6.8374382,25.967862 C6.66131461,25.7011215 6.19762921,25.5667917 5.44702247,25.5667917 L5.44702247,35.0056964 L0,35.0056964 L0,14.0726418 Z" id="Fill-3" fill="#E6E6E6"></path>
                <path d="M21.2443483,19.8910395 C21.2443483,18.9168288 21.1905506,18.2944343 21.0829551,18.0225764 C20.9747191,17.7513582 20.7531236,17.6151095 20.4162472,17.6151095 C20.1318876,17.6151095 19.9134944,17.725132 19.7629888,17.9451769 C19.6118427,18.1652218 19.5369101,18.8138427 19.5369101,19.8910395 L19.5369101,29.6657685 C19.5369101,30.881133 19.5862247,31.630821 19.6854944,31.9154722 C19.7841236,32.2001233 20.0153258,32.3421291 20.3778202,32.3421291 C20.748,32.3421291 20.9856067,32.1783747 21.0893596,31.850866 C21.1924719,31.5233572 21.2443483,30.7436049 21.2443483,29.5109694 L21.2443483,19.8910395 Z M26.6913708,26.7693629 C26.6913708,28.8732229 26.6414157,30.3617246 26.5421461,31.236787 C26.4435169,32.1118495 26.1328989,32.9114314 25.6109326,33.6355328 C25.0889663,34.3589945 24.3838315,34.9148639 23.4955281,35.3031408 C22.6072247,35.6907782 21.5722584,35.8845968 20.3906292,35.8845968 C19.2692022,35.8845968 18.2624157,35.7016525 17.3696292,35.3351241 C16.4768427,34.9692354 15.7588989,34.4197627 15.2151573,33.6873457 C14.6720562,32.954289 14.3486292,32.1566261 14.2448764,31.2949966 C14.141764,30.4327275 14.0898876,28.9243961 14.0898876,26.7693629 L14.0898876,23.1878756 C14.0898876,21.085295 14.1392022,19.5961536 14.2384719,18.7210912 C14.3377416,17.8460287 14.6483596,17.0464468 15.1703258,16.3223454 C15.6916517,15.5982441 16.3967865,15.0423747 17.2850899,14.6540977 C18.1733933,14.2664604 19.209,14.0726418 20.3906292,14.0726418 C21.5114157,14.0726418 22.5188427,14.2555861 23.4116292,14.6221144 C24.3044157,14.9886428 25.0223596,15.5381155 25.5654607,16.2705325 C26.1092022,17.0035892 26.4326292,17.8012522 26.5357416,18.6628816 C26.6394944,19.5245111 26.6913708,21.0334821 26.6913708,23.1878756 L26.6913708,26.7693629 Z" id="Fill-5" fill="#E6E6E6"></path>
                <path d="M53.409,23.5243397 L56.5337528,14.0726418 L51.4229663,14.0726418 L48.9975843,22.2053494 L48.9975843,14.0726418 L46.7893146,14.0726418 C46.1712809,14.9828858 45.0075843,15.7172218 43.5505618,16.1227698 L43.5505618,35.0056964 L48.9975843,35.0056964 L48.9975843,26.0324683 L51.2032921,35.0056964 L56.8309213,35.0056964 L53.409,23.5243397 Z" id="Fill-7" fill="#E6E6E6"></path>
                <path d="M40.3854607,16.9031617 C37.4919101,16.8999634 35.0556404,15.7037889 34.3031124,14.0726418 C33.2156292,14.096949 32.2453483,14.2946057 31.3948315,14.66881 C30.4847528,15.0692407 29.7732135,15.6187134 29.2602135,16.3172281 C28.746573,17.0157429 28.4385169,17.7417633 28.334764,18.4959289 C28.2316517,19.2500946 28.1797753,20.3816629 28.1797753,21.8899943 L28.1797753,28.0058364 C28.1797753,30.0572438 28.3482135,31.5937204 28.6844494,32.6152663 C29.0206854,33.6361725 29.7066067,34.436394 30.741573,35.014012 C31.7765393,35.5909903 33.091382,35.8794795 34.687382,35.8794795 C36.2225393,35.8794795 37.5143258,35.5385378 38.5627416,34.8566543 C39.6105169,34.1747708 40.2874719,33.3809459 40.5936067,32.4739002 C40.8997416,31.5681338 41.052809,30.0316572 41.052809,27.8644703 L41.052809,27.0488968 L35.6057865,27.0488968 L35.6057865,29.6798411 C35.6057865,30.8293201 35.5436629,31.5591785 35.4181348,31.8706956 C35.2932472,32.181573 35.0281011,32.3370118 34.6226966,32.3370118 C34.2,32.3370118 33.9284494,32.1822127 33.8080449,31.8719749 C33.687,31.5610975 33.6267978,30.8971246 33.6267978,29.8806961 L33.6267978,20.1571403 C33.6267978,19.0972145 33.687,18.4076551 33.8080449,18.088462 C33.9284494,17.7699085 34.212809,17.6099922 34.661764,17.6099922 C35.0582022,17.6099922 35.3150225,17.7417633 35.4315843,18.0040261 C35.5481461,18.266289 35.6057865,18.9264238 35.6057865,19.9844306 L35.6057865,23.6222085 L41.052809,23.6222085 L41.052809,21.634128 C41.052809,19.6799498 40.8888539,18.2407024 40.5609438,17.3151063 C40.5109888,17.1737403 40.4520674,17.0368518 40.3854607,16.9031617" id="Fill-9" fill="#E6E6E6"></path>
                <path d="M0,1.50769166 L2.23196629,1.50769166 L2.23196629,2.52923752 C2.61303371,2.10961693 3.03765169,1.79682049 3.50389888,1.58956885 C3.97014607,1.38295689 4.47866292,1.27933107 5.02944944,1.27933107 C5.586,1.27933107 6.08747191,1.41557983 6.53450562,1.68743768 C6.98217978,1.9599352 7.34211236,2.35780716 7.61494382,2.8804139 C7.96911236,2.35780716 8.40397753,1.9599352 8.91953933,1.68743768 C9.43510112,1.41557983 9.99805618,1.27933107 10.6084045,1.27933107 C11.2411685,1.27933107 11.7977191,1.42581448 12.2774157,1.72006062 C12.7571124,2.01430677 13.1023146,2.39874575 13.312382,2.87209825 C13.5224494,3.34609041 13.6274831,4.11688738 13.6274831,5.18512882 L13.6274831,10.3977633 L11.3795056,10.3977633 L11.3795056,5.88748158 C11.3795056,4.88000836 11.2539775,4.19748524 11.0029213,3.84055187 C10.7525056,3.48425817 10.3765618,3.30579148 9.87508989,3.30579148 C9.49338202,3.30579148 9.15138202,3.41453462 8.84908989,3.63266057 C8.54679775,3.85078652 8.322,4.15142932 8.17469663,4.53522864 C8.02739326,4.91902796 7.95374157,5.5363052 7.95374157,6.38578103 L7.95374157,10.3977633 L5.70640449,10.3977633 L5.70640449,6.09153488 C5.70640449,5.29707029 5.64748315,4.72073164 5.5302809,4.36379828 C5.4124382,4.00686491 5.23631461,3.74140371 5.00126966,3.56677502 C4.76686517,3.39278599 4.48250562,3.30579148 4.14947191,3.30579148 C3.77737079,3.30579148 3.44049438,3.41581395 3.13692135,3.63649856 C2.83398876,3.85718317 2.60726966,4.16614163 2.45740449,4.56401359 C2.30689888,4.96188555 2.23196629,5.58811811 2.23196629,6.44335093 L2.23196629,10.3977633 L0,10.3977633 L0,1.50769166 Z" id="Fill-11" fill="#E6E6E6"></path>
                <path d="M19.9980337,3.33841442 C19.3082697,3.33841442 18.7350674,3.58212699 18.2790674,4.0701918 C17.822427,4.55761693 17.594427,5.18257016 17.594427,5.94505148 C17.594427,6.71328978 17.8269101,7.34527933 18.291236,7.84102012 C18.7555618,8.33676091 19.3268427,8.58431147 20.0057191,8.58431147 C20.7070112,8.58431147 21.2878989,8.3405989 21.7496629,7.85317377 C22.211427,7.36574863 22.4419888,6.72672276 22.4419888,5.93673582 C22.4419888,5.16338019 22.211427,4.53714764 21.7496629,4.05739848 C21.2878989,3.578289 20.7044494,3.33841442 19.9980337,3.33841442 L19.9980337,3.33841442 Z M22.344,1.50833133 L24.5759663,1.50833133 L24.5759663,10.3984029 L22.344,10.3984029 L22.344,9.45873426 C21.9084944,9.87259786 21.4717079,10.170682 21.0336404,10.3536263 C20.595573,10.535931 20.1203596,10.6274032 19.6086404,10.6274032 C18.4603146,10.6274032 17.4669775,10.1815563 16.6286292,9.29114189 C15.7896404,8.40072746 15.3707865,7.29346642 15.3707865,5.96935877 C15.3707865,4.59663653 15.7768315,3.47210452 16.5876404,2.59512307 C17.3990899,1.71814163 18.3841011,1.27933107 19.5433146,1.27933107 C20.076809,1.27933107 20.5776404,1.38039822 21.045809,1.58189287 C21.5139775,1.78338751 21.9462809,2.08594931 22.344,2.48893859 L22.344,1.50833133 Z" id="Fill-13" fill="#E6E6E6"></path>
                <path d="M26.8988764,1.50769166 L29.1302022,1.50769166 L29.1302022,2.41857539 C29.6367978,1.99255814 30.0953596,1.696393 30.5058876,1.52944029 C30.9164157,1.36248759 31.337191,1.27933107 31.7669326,1.27933107 C32.6488315,1.27933107 33.3968764,1.58701019 34.0117079,2.20236843 C34.529191,2.72497518 34.7872921,3.49897047 34.7872921,4.52307499 L34.7872921,10.3977633 L32.5803034,10.3977633 L32.5803034,6.50475882 C32.5803034,5.4435537 32.5329101,4.73928194 32.4374831,4.39130389 C32.3420562,4.04268618 32.1761798,3.77786465 31.9398539,3.59555997 C31.7035281,3.41325529 31.4114831,3.32178312 31.0637191,3.32178312 C30.6122022,3.32178312 30.2247303,3.47274419 29.9013034,3.77466632 C29.5778764,4.07722812 29.3537191,4.49429004 29.228191,5.0277711 C29.1628652,5.30538594 29.1302022,5.90667154 29.1302022,6.83098824 L29.1302022,10.3977633 L26.8988764,10.3977633 L26.8988764,1.50769166 Z" id="Fill-15" fill="#E6E6E6"></path>
                <path d="M41.1572022,3.36272171 C40.4539888,3.36272171 39.8737416,3.5987583 39.4158202,4.06955213 C38.9585393,4.54098563 38.7292584,5.13331591 38.7292584,5.84718265 C38.7292584,6.58791534 38.9636629,7.19495793 39.4324719,7.66895009 C39.9006404,8.14294225 40.4892135,8.3796185 41.198191,8.3796185 C41.8898764,8.3796185 42.4611573,8.14805958 42.9107528,7.68494173 C43.3603483,7.22246355 43.5851461,6.61478129 43.5851461,5.86317429 C43.5851461,5.1224416 43.3590674,4.52051633 42.9062697,4.05739848 C42.4541124,3.59428064 41.8706629,3.36272171 41.1572022,3.36272171 L41.1572022,3.36272171 Z M43.4705056,1.50769166 L45.6941461,1.50769166 L45.6941461,9.12354952 C45.6941461,10.6267635 45.3918539,11.7327452 44.7866292,12.440855 C43.9745393,13.3997136 42.7512809,13.8788231 41.1162135,13.8788231 C40.2445618,13.8788231 39.5112472,13.77008 38.9175506,13.551954 C38.3232135,13.3344677 37.8217416,13.0139953 37.4131348,12.591816 C37.0045281,12.1696368 36.702236,11.656625 36.505618,11.0515014 L38.9662247,11.0515014 C39.1839775,11.3022503 39.4651348,11.4915913 39.8084157,11.6195244 C40.1516966,11.7474575 40.5577416,11.8114241 41.0265506,11.8114241 C41.6253708,11.8114241 42.1082697,11.7193123 42.4733258,11.5338093 C42.838382,11.3489459 43.0958427,11.1090713 43.2457079,10.8148252 C43.395573,10.520579 43.4705056,10.0139639 43.4705056,9.29497988 C43.0779101,9.68709485 42.6667416,9.96918735 42.2363596,10.1406177 C41.8053371,10.3120481 41.3179551,10.3984029 40.7729326,10.3984029 C39.5791348,10.3984029 38.5710674,9.96790802 37.7480899,9.10691821 C36.9251124,8.24656807 36.5139438,7.15721766 36.5139438,5.838867 C36.5139438,4.42776483 36.9494494,3.29491717 37.8217416,2.43968435 C38.6120562,1.66632872 39.5547978,1.27933107 40.6506067,1.27933107 C41.1623258,1.27933107 41.6465056,1.3733619 42.1012247,1.56142357 C42.5559438,1.74948524 43.0125843,2.05844369 43.4705056,2.48829893 L43.4705056,1.50769166 Z" id="Fill-17" fill="#E6E6E6"></path>
                <path d="M52.0205056,3.33841442 C51.3307416,3.33841442 50.7575393,3.58212699 50.3015393,4.0701918 C49.8448989,4.55761693 49.6168989,5.18257016 49.6168989,5.94505148 C49.6168989,6.71328978 49.8487416,7.34527933 50.3137079,7.84102012 C50.7780337,8.33676091 51.3493146,8.58431147 52.028191,8.58431147 C52.7288427,8.58431147 53.3103708,8.3405989 53.7721348,7.85317377 C54.2338989,7.36574863 54.4644607,6.72672276 54.4644607,5.93673582 C54.4644607,5.16338019 54.2338989,4.53714764 53.7721348,4.05739848 C53.3103708,3.578289 52.7262809,3.33841442 52.0205056,3.33841442 L52.0205056,3.33841442 Z M54.3664719,1.50833133 L56.5984382,1.50833133 L56.5984382,10.3984029 L54.3664719,10.3984029 L54.3664719,9.45873426 C53.9309663,9.87259786 53.4935393,10.170682 53.0561124,10.3536263 C52.6174045,10.535931 52.1428315,10.6274032 51.6311124,10.6274032 C50.4821461,10.6274032 49.488809,10.1815563 48.6504607,9.29114189 C47.8127528,8.40072746 47.3932584,7.29346642 47.3932584,5.96935877 C47.3932584,4.59663653 47.7986629,3.47210452 48.6101124,2.59512307 C49.4209213,1.71814163 50.4059326,1.27933107 51.5657865,1.27933107 C52.0992809,1.27933107 52.6001124,1.38039822 53.0682809,1.58189287 C53.5364494,1.78338751 53.9687528,2.08594931 54.3664719,2.48893859 L54.3664719,1.50833133 Z" id="Fill-19" fill="#E6E6E6"></path>
                <path d="M5.44702247,16.374798 L5.44702247,21.0296441 C6.05929213,21.0296441 6.48839326,20.9458479 6.73432584,20.7769762 C6.98025843,20.6093839 7.10322472,20.0643888 7.10322472,19.1413515 L7.10322472,17.9912328 C7.10322472,17.32726 6.98410112,16.8922874 6.74713483,16.6850358 C6.50952809,16.4777842 6.07658427,16.374798 5.44702247,16.374798 L5.44702247,16.374798 Z M0,12.7933107 L3.85550562,12.7933107 C6.42562921,12.7933107 8.16573034,12.8924588 9.07644944,13.0907552 C9.98588764,13.2890515 10.7275281,13.7950269 11.3013708,14.6099608 C11.874573,15.424255 12.1614944,16.7240554 12.1614944,18.5080826 C12.1614944,20.1373107 11.9591124,21.2324181 11.5537079,21.7921254 C11.1483034,22.3524724 10.3503034,22.6889365 9.16034831,22.800878 C10.2382247,23.0682582 10.962573,23.4258312 11.3333933,23.8742367 C11.7042135,24.3220026 11.9354157,24.7339472 12.0257191,25.1087912 C12.1166629,25.4836352 12.1614944,26.5160554 12.1614944,28.2054121 L12.1614944,33.7263653 L7.10322472,33.7263653 L7.10322472,26.7700026 C7.10322472,25.6499483 7.01420225,24.9559112 6.8374382,24.688531 C6.66131461,24.4217904 6.19762921,24.2874607 5.44702247,24.2874607 L5.44702247,33.7263653 L0,33.7263653 L0,12.7933107 Z" id="Fill-21" fill="#29B6F6"></path>
                <path d="M21.2443483,17.9720429 C21.2443483,16.9978322 21.1905506,16.3754377 21.0829551,16.1035798 C20.9747191,15.8323616 20.7531236,15.6961129 20.4162472,15.6961129 C20.1318876,15.6961129 19.9134944,15.8061354 19.7629888,16.0261803 C19.6118427,16.2462252 19.5369101,16.8948461 19.5369101,17.9720429 L19.5369101,27.7467719 C19.5369101,28.9621364 19.5862247,29.7118244 19.6854944,29.9964756 C19.7841236,30.2811267 20.0153258,30.4231325 20.3778202,30.4231325 C20.748,30.4231325 20.9856067,30.2593781 21.0893596,29.9318693 C21.1924719,29.6043606 21.2443483,28.8246083 21.2443483,27.5919728 L21.2443483,17.9720429 Z M26.6913708,24.8503663 C26.6913708,26.9542263 26.6414157,28.442728 26.5421461,29.3177904 C26.4435169,30.1928529 26.1328989,30.9924348 25.6109326,31.7165362 C25.0889663,32.4399979 24.3838315,32.9958673 23.4955281,33.3841442 C22.6072247,33.7717816 21.5722584,33.9656002 20.3906292,33.9656002 C19.2692022,33.9656002 18.2624157,33.7826559 17.3696292,33.4161275 C16.4768427,33.0502388 15.7588989,32.5007661 15.2151573,31.7683491 C14.6720562,31.0352924 14.3486292,30.2376295 14.2448764,29.376 C14.141764,28.5137309 14.0898876,27.0053995 14.0898876,24.8503663 L14.0898876,21.268879 C14.0898876,19.1662984 14.1392022,17.677157 14.2384719,16.8020946 C14.3377416,15.9270321 14.6483596,15.1274502 15.1703258,14.4033488 C15.6916517,13.6792475 16.3967865,13.1233781 17.2850899,12.7351011 C18.1733933,12.3474638 19.209,12.1536452 20.3906292,12.1536452 C21.5114157,12.1536452 22.5188427,12.3365895 23.4116292,12.7031178 C24.3044157,13.0696462 25.0223596,13.6191189 25.5654607,14.3515359 C26.1092022,15.0845926 26.4326292,15.8822556 26.5357416,16.743885 C26.6394944,17.6055145 26.6913708,19.1144855 26.6913708,21.268879 L26.6913708,24.8503663 Z" id="Fill-23" fill="#29B6F6"></path>
                <path d="M53.409,22.2450086 L56.5337528,12.7933107 L51.4229663,12.7933107 L48.9975843,20.9260183 L48.9975843,12.7933107 L46.7893146,12.7933107 C46.1712809,13.7035547 45.0075843,14.4378908 43.5505618,14.8434387 L43.5505618,33.7263653 L48.9975843,33.7263653 L48.9975843,24.7531372 L51.2032921,33.7263653 L56.8309213,33.7263653 L53.409,22.2450086 Z" id="Fill-25" fill="#29B6F6"></path>
                <path d="M40.3854607,14.9841651 C37.4919101,14.9809668 35.0556404,13.7847923 34.3031124,12.1536452 C33.2156292,12.1779524 32.2453483,12.3756091 31.3948315,12.7498134 C30.4847528,13.1502441 29.7732135,13.6997167 29.2602135,14.3982315 C28.746573,15.0967463 28.4385169,15.8227667 28.334764,16.5769323 C28.2316517,17.331098 28.1797753,18.4626663 28.1797753,19.9709976 L28.1797753,26.0868398 C28.1797753,28.1382472 28.3482135,29.6747238 28.6844494,30.6962697 C29.0206854,31.7171759 29.7066067,32.5173974 30.741573,33.0950154 C31.7765393,33.6719937 33.091382,33.9604829 34.687382,33.9604829 C36.2225393,33.9604829 37.5143258,33.6195412 38.5627416,32.9376577 C39.6105169,32.2557742 40.2874719,31.4619493 40.5936067,30.5549036 C40.8997416,29.6491372 41.052809,28.1126606 41.052809,25.9454737 L41.052809,25.1299002 L35.6057865,25.1299002 L35.6057865,27.7608445 C35.6057865,28.9103235 35.5436629,29.6401819 35.4181348,29.951699 C35.2932472,30.2625764 35.0281011,30.4180152 34.6226966,30.4180152 C34.2,30.4180152 33.9284494,30.2632161 33.8080449,29.9529783 C33.687,29.6421009 33.6267978,28.978128 33.6267978,27.9616995 L33.6267978,18.2381437 C33.6267978,17.1782179 33.687,16.4886585 33.8080449,16.1694654 C33.9284494,15.8509119 34.212809,15.6909956 34.661764,15.6909956 C35.0582022,15.6909956 35.3150225,15.8227667 35.4315843,16.0850295 C35.5481461,16.3472924 35.6057865,17.0074272 35.6057865,18.065434 L35.6057865,21.7032119 L41.052809,21.7032119 L41.052809,19.7151314 C41.052809,17.7609532 40.8888539,16.3217058 40.5609438,15.3961097 C40.5109888,15.2547437 40.4520674,15.1178552 40.3854607,14.9841651" id="Fill-27" fill="#29B6F6"></path>
                <path d="M0,0.228360596 L2.23196629,0.228360596 L2.23196629,1.24990645 C2.61303371,0.830285864 3.03765169,0.517489417 3.50389888,0.310237784 C3.97014607,0.103625817 4.47866292,0 5.02944944,0 C5.586,0 6.08747191,0.136248759 6.53450562,0.408106611 C6.98217978,0.680604129 7.34211236,1.07847609 7.61494382,1.60108283 C7.96911236,1.07847609 8.40397753,0.680604129 8.91953933,0.408106611 C9.43510112,0.136248759 9.99805618,0 10.6084045,0 C11.2411685,0 11.7977191,0.146483407 12.2774157,0.440729553 C12.7571124,0.734975699 13.1023146,1.11941469 13.312382,1.59276718 C13.5224494,2.06675934 13.6274831,2.83755631 13.6274831,3.90579775 L13.6274831,9.11843219 L11.3795056,9.11843219 L11.3795056,4.60815051 C11.3795056,3.60067729 11.2539775,2.91815417 11.0029213,2.5612208 C10.7525056,2.2049271 10.3765618,2.02646041 9.87508989,2.02646041 C9.49338202,2.02646041 9.15138202,2.13520355 8.84908989,2.3533295 C8.54679775,2.57145545 8.322,2.87209825 8.17469663,3.25589757 C8.02739326,3.63969689 7.95374157,4.25697413 7.95374157,5.10644996 L7.95374157,9.11843219 L5.70640449,9.11843219 L5.70640449,4.81220381 C5.70640449,4.01773922 5.64748315,3.44140057 5.5302809,3.08446721 C5.4124382,2.72753384 5.23631461,2.46207264 5.00126966,2.28744395 C4.76686517,2.11345493 4.48250562,2.02646041 4.14947191,2.02646041 C3.77737079,2.02646041 3.44049438,2.13648288 3.13692135,2.35716749 C2.83398876,2.5778521 2.60726966,2.88681056 2.45740449,3.28468252 C2.30689888,3.68255448 2.23196629,4.30878704 2.23196629,5.16401986 L2.23196629,9.11843219 L0,9.11843219 L0,0.228360596 Z" id="Fill-29" fill="#003399"></path>
                <path d="M19.9980337,2.05908336 C19.3082697,2.05908336 18.7350674,2.30279592 18.2790674,2.79086073 C17.822427,3.27828586 17.594427,3.90323909 17.594427,4.66572041 C17.594427,5.43395871 17.8269101,6.06594826 18.291236,6.56168905 C18.7555618,7.05742984 19.3268427,7.3049804 20.0057191,7.3049804 C20.7070112,7.3049804 21.2878989,7.06126783 21.7496629,6.5738427 C22.211427,6.08641756 22.4419888,5.44739169 22.4419888,4.65740476 C22.4419888,3.88404912 22.211427,3.25781657 21.7496629,2.77806742 C21.2878989,2.29895793 20.7044494,2.05908336 19.9980337,2.05908336 L19.9980337,2.05908336 Z M22.344,0.229000261 L24.5759663,0.229000261 L24.5759663,9.11907186 L22.344,9.11907186 L22.344,8.17940319 C21.9084944,8.59326679 21.4717079,8.89135093 21.0336404,9.07429527 C20.595573,9.25659995 20.1203596,9.34807212 19.6086404,9.34807212 C18.4603146,9.34807212 17.4669775,8.90222524 16.6286292,8.01181082 C15.7896404,7.12139639 15.3707865,6.01413535 15.3707865,4.6900277 C15.3707865,3.31730546 15.7768315,2.19277345 16.5876404,1.315792 C17.3990899,0.438810557 18.3841011,0 19.5433146,0 C20.076809,0 20.5776404,0.101067154 21.045809,0.302561798 C21.5139775,0.504056441 21.9462809,0.806618239 22.344,1.20960753 L22.344,0.229000261 Z" id="Fill-31" fill="#003296"></path>
                <path d="M26.8988764,0.228360596 L29.1302022,0.228360596 L29.1302022,1.13924432 C29.6367978,0.713227071 30.0953596,0.417061928 30.5058876,0.250109224 C30.9164157,0.0831565195 31.337191,0 31.7669326,0 C32.6488315,0 33.3968764,0.307679122 34.0117079,0.923037366 C34.529191,1.44564411 34.7872921,2.2196394 34.7872921,3.24374392 L34.7872921,9.11843219 L32.5803034,9.11843219 L32.5803034,5.22542775 C32.5803034,4.16422263 32.5329101,3.45995088 32.4374831,3.11197282 C32.3420562,2.76335511 32.1761798,2.49853358 31.9398539,2.3162289 C31.7035281,2.13392422 31.4114831,2.04245205 31.0637191,2.04245205 C30.6122022,2.04245205 30.2247303,2.19341312 29.9013034,2.49533525 C29.5778764,2.79789705 29.3537191,3.21495898 29.228191,3.74844003 C29.1628652,4.02605487 29.1302022,4.62734048 29.1302022,5.55165717 L29.1302022,9.11843219 L26.8988764,9.11843219 L26.8988764,0.228360596 Z" id="Fill-33" fill="#003296"></path>
                <path d="M41.1572022,2.08339065 C40.4539888,2.08339065 39.8737416,2.31942723 39.4158202,2.79022106 C38.9585393,3.26165456 38.7292584,3.85398484 38.7292584,4.56785158 C38.7292584,5.30858427 38.9636629,5.91562686 39.4324719,6.38961902 C39.9006404,6.86361118 40.4892135,7.10028743 41.198191,7.10028743 C41.8898764,7.10028743 42.4611573,6.86872851 42.9107528,6.40561066 C43.3603483,5.94313248 43.5851461,5.33545022 43.5851461,4.58384322 C43.5851461,3.84311053 43.3590674,3.24118526 42.9062697,2.77806742 C42.4541124,2.31494957 41.8706629,2.08339065 41.1572022,2.08339065 L41.1572022,2.08339065 Z M43.4705056,0.228360596 L45.6941461,0.228360596 L45.6941461,7.84421845 C45.6941461,9.34743245 45.3918539,10.4534142 44.7866292,11.1615239 C43.9745393,12.1203825 42.7512809,12.599492 41.1162135,12.599492 C40.2445618,12.599492 39.5112472,12.4907489 38.9175506,12.2726229 C38.3232135,12.0551367 37.8217416,11.7346642 37.4131348,11.312485 C37.0045281,10.8903057 36.702236,10.377294 36.505618,9.77217037 L38.9662247,9.77217037 C39.1839775,10.0229193 39.4651348,10.2122603 39.8084157,10.3401934 C40.1516966,10.4681265 40.5577416,10.532093 41.0265506,10.532093 C41.6253708,10.532093 42.1082697,10.4399812 42.4733258,10.2544782 C42.838382,10.0696148 43.0958427,9.82974027 43.2457079,9.53549412 C43.395573,9.24124797 43.4705056,8.73463287 43.4705056,8.01564881 C43.0779101,8.40776378 42.6667416,8.68985628 42.2363596,8.86128665 C41.8053371,9.03271701 41.3179551,9.11907186 40.7729326,9.11907186 C39.5791348,9.11907186 38.5710674,8.68857695 37.7480899,7.82758714 C36.9251124,6.967237 36.5139438,5.87724693 36.5139438,4.55889626 C36.5139438,3.14843376 36.9494494,2.0155861 37.8217416,1.16035328 C38.6120562,0.386997648 39.5547978,0 40.6506067,0 C41.1623258,0 41.6465056,0.0940308336 42.1012247,0.282092501 C42.5559438,0.470154168 43.0125843,0.779112621 43.4705056,1.20896786 L43.4705056,0.228360596 Z" id="Fill-35" fill="#003296"></path>
                <path d="M52.0205056,2.05908336 C51.3307416,2.05908336 50.7575393,2.30279592 50.3015393,2.79086073 C49.8448989,3.27828586 49.6168989,3.90323909 49.6168989,4.66572041 C49.6168989,5.43395871 49.8487416,6.06594826 50.3137079,6.56168905 C50.7780337,7.05742984 51.3493146,7.3049804 52.028191,7.3049804 C52.7288427,7.3049804 53.3103708,7.06126783 53.7721348,6.5738427 C54.2338989,6.08641756 54.4644607,5.44739169 54.4644607,4.65740476 C54.4644607,3.88404912 54.2338989,3.25781657 53.7721348,2.77806742 C53.3103708,2.29895793 52.7262809,2.05908336 52.0205056,2.05908336 L52.0205056,2.05908336 Z M54.3664719,0.229000261 L56.5984382,0.229000261 L56.5984382,9.11907186 L54.3664719,9.11907186 L54.3664719,8.17940319 C53.9309663,8.59326679 53.4935393,8.89135093 53.0561124,9.07429527 C52.6174045,9.25659995 52.1428315,9.34807212 51.6311124,9.34807212 C50.4821461,9.34807212 49.488809,8.90222524 48.6504607,8.01181082 C47.8127528,7.12139639 47.3932584,6.01413535 47.3932584,4.6900277 C47.3932584,3.31730546 47.7986629,2.19277345 48.6101124,1.315792 C49.4209213,0.438810557 50.4059326,0 51.5657865,0 C52.0992809,0 52.6001124,0.101067154 53.0682809,0.302561798 C53.5364494,0.504056441 53.9687528,0.806618239 54.3664719,1.20960753 L54.3664719,0.229000261 Z" id="Fill-37" fill="#003296"></path>
            </g>
        </g>
    </g>
</svg>